<svg xmlns="http://www.w3.org/2000/svg" width="512" height="512" viewBox="0 0 512 512" version="1.1">
	<path d="M 62.500 1.635 C 37.574 6.933, 16.509 24.323, 6.345 47.995 C -0.446 63.812, -0.087 51.367, 0.245 259.500 C 0.582 471.350, -0.238 450.689, 8.547 468.500 C 16.108 483.830, 28.165 495.888, 43.500 503.456 C 61.362 512.270, 41.010 511.500, 256 511.500 C 470.990 511.500, 450.638 512.270, 468.500 503.456 C 483.833 495.889, 495.889 483.833, 503.456 468.500 C 507.857 459.581, 511 449.627, 511 444.606 C 511 443.173, 511.450 442, 512 442 C 512.663 442, 512.995 378.927, 512.985 254.750 C 512.975 133.490, 512.628 68.029, 512 69 C 511.249 70.162, 511.027 69.856, 511.015 67.644 C 510.987 62.340, 507.921 52.548, 503.456 43.500 C 495.888 28.165, 483.830 16.108, 468.500 8.547 C 450.677 -0.245, 471.517 0.569, 258.500 0.346 C 94.474 0.174, 68.575 0.344, 62.500 1.635 M 0.490 256 C 0.490 359.125, 0.607 401.313, 0.750 349.750 C 0.893 298.188, 0.893 213.813, 0.750 162.250 C 0.607 110.688, 0.490 152.875, 0.490 256 M 134.500 70.954 C 131.427 72.225, 128.057 76.314, 126.976 80.083 C 126.439 81.955, 126 92.377, 126 103.243 L 126 123 165 123 L 204 123 204 101.450 C 204 77.547, 203.571 75.538, 197.701 71.960 C 194.714 70.138, 192.562 70.011, 165.500 70.067 C 149.550 70.100, 135.600 70.499, 134.500 70.954 M 314.299 71.936 C 308.425 75.560, 308 77.551, 308 101.450 L 308 123 347 123 L 386 123 385.994 103.250 C 385.991 92.388, 385.544 81.899, 385.001 79.943 C 384.457 77.987, 382.631 75.062, 380.942 73.443 L 377.872 70.500 347.686 70.230 C 319.112 69.975, 317.329 70.066, 314.299 71.936 M 115.220 152.578 C 104.980 157.680, 101.264 164.824, 99.968 181.896 C 97.843 209.891, 94.165 222.636, 77.100 261.140 C 61.932 295.363, 55.528 315.692, 51.314 343 C 49.875 352.326, 49.536 361.023, 49.520 389 C 49.502 420.215, 49.671 423.843, 51.296 427.108 C 53.656 431.846, 58.421 436.639, 63.447 439.330 C 67.474 441.486, 67.873 441.500, 126.500 441.500 C 185.303 441.500, 185.514 441.493, 189.595 439.309 C 194.036 436.932, 198.930 431.863, 201.731 426.737 C 203.395 423.693, 203.516 415.363, 203.764 286.750 L 204.028 150 162.210 150 L 120.393 150 115.220 152.578 M 230 216.500 L 230 283 256 283 L 282 283 282 216.500 L 282 150 256 150 L 230 150 230 216.500 M 308.236 286.750 L 308.500 423.500 310.662 427.500 C 313.211 432.215, 318.114 437.039, 323 439.638 C 326.300 441.393, 329.878 441.500, 385.500 441.500 C 444.441 441.500, 444.504 441.498, 448.628 439.292 C 453.988 436.425, 460.335 429.163, 461.824 424.193 C 463.331 419.163, 463.413 369.600, 461.939 354.424 C 460.332 337.870, 455.475 315.158, 450.088 299 C 447.429 291.025, 440.664 274.150, 435.055 261.500 C 418.390 223.920, 414.018 209.015, 412.120 183.309 C 410.748 164.731, 407.298 157.819, 396.780 152.578 L 391.607 150 349.790 150 L 307.972 150 308.236 286.750" stroke="none" fill="black" fill-rule="evenodd"/>
</svg>