<?xml version="1.0" encoding="UTF-8" standalone="no"?>
<!-- Created with Inkscape (http://www.inkscape.org/) -->

<svg
   xmlns:dc="http://purl.org/dc/elements/1.1/"
   xmlns:cc="http://creativecommons.org/ns#"
   xmlns:rdf="http://www.w3.org/1999/02/22-rdf-syntax-ns#"
   xmlns:svg="http://www.w3.org/2000/svg"
   xmlns="http://www.w3.org/2000/svg"
   xmlns:sodipodi="http://sodipodi.sourceforge.net/DTD/sodipodi-0.dtd"
   xmlns:inkscape="http://www.inkscape.org/namespaces/inkscape"
   width="176.39563mm"
   height="176.39563mm"
   viewBox="0 0 176.39563 176.39563"
   version="1.1"
   id="svg8"
   inkscape:version="0.92.5 (2060ec1f9f, 2020-04-08)"
   sodipodi:docname="favicon.svg"
   inkscape:export-filename="/home/mscherbela/develop/interceptor/backend/static/favicon_512.png"
   inkscape:export-xdpi="73.725182"
   inkscape:export-ydpi="73.725182">
  <defs
     id="defs2" />
  <sodipodi:namedview
     id="base"
     pagecolor="#ffffff"
     bordercolor="#666666"
     borderopacity="1.0"
     inkscape:pageopacity="0.0"
     inkscape:pageshadow="2"
     inkscape:zoom="0.98994949"
     inkscape:cx="512.31753"
     inkscape:cy="160.65287"
     inkscape:document-units="mm"
     inkscape:current-layer="layer1"
     showgrid="false"
     fit-margin-top="0"
     fit-margin-left="0"
     fit-margin-right="0"
     fit-margin-bottom="0"
     inkscape:window-width="3696"
     inkscape:window-height="2032"
     inkscape:window-x="3984"
     inkscape:window-y="54"
     inkscape:window-maximized="1" />
  <metadata
     id="metadata5">
    <rdf:RDF>
      <cc:Work
         rdf:about="">
        <dc:format>image/svg+xml</dc:format>
        <dc:type
           rdf:resource="http://purl.org/dc/dcmitype/StillImage" />
        <dc:title></dc:title>
      </cc:Work>
    </rdf:RDF>
  </metadata>
  <g
     inkscape:label="Layer 1"
     inkscape:groupmode="layer"
     id="layer1"
     transform="translate(-15.369133,-22.916235)">
    <g
       id="g4534">
      <rect
         ry="26.994223"
         y="23.048735"
         x="15.501633"
         height="176.13063"
         width="176.13063"
         id="rect826"
         style="fill:#000056;fill-opacity:1;stroke:#000000;stroke-width:0.26499999;stroke-miterlimit:4;stroke-dasharray:none;stroke-opacity:1" />
      <path
         style="fill:#ffffff;stroke-width:0.28260916"
         inkscape:connector-curvature="0"
         d="m 148.2389,51.613501 c 0,-2.537355 -1.98233,-4.576966 -4.4672,-4.576966 h -17.86878 c -2.48488,0 -4.4672,2.039611 -4.4672,4.576966 v 13.730897 h 26.81434 z M 49.927111,83.680866 C 49.217945,110.51332 33.069038,116.34895 32.091839,153.45098 v 12.58665 c 0,5.03466 4.020474,9.15393 8.934388,9.15393 h 35.737554 c 4.913917,0 8.934392,-4.11927 8.934392,-9.15393 V 74.498329 H 58.8615 c -4.919498,0 -8.803165,4.147875 -8.934389,9.182537 z m 107.274089,0 c -0.1396,-5.034662 -4.02047,-9.182537 -8.93439,-9.182537 h -26.83109 v 91.539301 c 0,5.03466 4.02048,9.15393 8.93439,9.15393 h 35.73756 c 4.91392,0 8.93439,-4.11927 8.93439,-9.15393 V 153.45098 C 174.06486,116.34895 157.92712,110.51332 157.2012,83.680866 Z M 94.632554,120.26797 H 112.50134 V 74.498329 H 94.632554 Z M 81.230972,47.036535 H 63.362197 c -2.484876,0 -4.467193,2.039611 -4.467193,4.576966 l -0.01116,13.730897 H 85.698173 V 51.613501 c 0,-2.537355 -1.982326,-4.576966 -4.467201,-4.576966 z"
         id="path815" />
    </g>
  </g>
</svg>
